HIERARCHY
ROOT Hips
{
	OFFSET 42.462830 92.095917 12.038650
	CHANNELS 6 Xposition Yposition Zposition Zrotation Yrotation Xrotation 
	JOINT LeftUpLeg
	{
		OFFSET 0.103457 1.857830 10.548504
		CHANNELS 3 Zrotation Yrotation Xrotation
		JOINT LeftLeg
		{
			OFFSET 43.500000 -0.000027 0.000000
			CHANNELS 3 Zrotation Yrotation Xrotation
			JOINT LeftFoot
			{
				OFFSET 42.372200 0.000015 0.000006
				CHANNELS 3 Zrotation Yrotation Xrotation
				JOINT LeftToe
				{
					OFFSET 17.299999 -0.000001 0.000003
					CHANNELS 3 Zrotation Yrotation Xrotation
					End Site
					{
						OFFSET 0.000000 0.000000 0.000000
					}
				}
			}
		}
	}
	JOINT RightUpLeg
	{
		OFFSET 0.103457 1.857826 -10.548506
		CHANNELS 3 Zrotation Yrotation Xrotation
		JOINT RightLeg
		{
			OFFSET 43.500042 -0.000027 0.000015
			CHANNELS 3 Zrotation Yrotation Xrotation
			JOINT RightFoot
			{
				OFFSET 42.372265 -0.000011 0.000010
				CHANNELS 3 Zrotation Yrotation Xrotation
				JOINT RightToe
				{
					OFFSET 17.299992 -0.000005 0.000008
					CHANNELS 3 Zrotation Yrotation Xrotation
					End Site
					{
						OFFSET 0.000000 0.000000 0.000000
					}
				}
			}
		}
	}
	JOINT Spine
	{
		OFFSET 6.901970 -2.603732 0.000001
		CHANNELS 3 Zrotation Yrotation Xrotation
		JOINT Spine1
		{
			OFFSET 12.588098 0.000000 0.000001
			CHANNELS 3 Zrotation Yrotation Xrotation
			JOINT Spine2
			{
				OFFSET 12.343201 0.000004 0.000001
				CHANNELS 3 Zrotation Yrotation Xrotation
				JOINT Neck
				{
					OFFSET 25.832903 -0.000008 0.000002
					CHANNELS 3 Zrotation Yrotation Xrotation
					JOINT Head
					{
						OFFSET 11.766609 0.000010 -0.000001
						CHANNELS 3 Zrotation Yrotation Xrotation
						End Site
						{
							OFFSET 0.000000 0.000000 0.000000
						}
					}
				}
				JOINT LeftShoulder
				{
					OFFSET 19.745903 -1.480370 6.000106
					CHANNELS 3 Zrotation Yrotation Xrotation
					JOINT LeftArm
					{
						OFFSET 11.284124 -0.000008 -0.000027
						CHANNELS 3 Zrotation Yrotation Xrotation
						JOINT LeftForeArm
						{
							OFFSET 33.000053 0.000001 0.000039
							CHANNELS 3 Zrotation Yrotation Xrotation
							JOINT LeftHand
							{
								OFFSET 25.200001 0.000016 0.000002
								CHANNELS 3 Zrotation Yrotation Xrotation
								End Site
								{
									OFFSET 0.000000 0.000000 0.000000
								}
							}
						}
					}
				}
				JOINT RightShoulder
				{
					OFFSET 19.746103 -1.480375 -6.000075
					CHANNELS 3 Zrotation Yrotation Xrotation
					JOINT RightArm
					{
						OFFSET 11.284133 -0.000017 0.000002
						CHANNELS 3 Zrotation Yrotation Xrotation
						JOINT RightForeArm
						{
							OFFSET 33.000092 0.000012 0.000002
							CHANNELS 3 Zrotation Yrotation Xrotation
							JOINT RightHand
							{
								OFFSET 25.199776 0.000141 0.000429
								CHANNELS 3 Zrotation Yrotation Xrotation
								End Site
								{
									OFFSET 0.000000 0.000000 0.000000
								}
							}
						}
					}
				}
			}
		}
	}
}
MOTION
Frames: 7
Frame Time: 0.033333
42.462830 92.095917 12.038650 88.451114 5.251256 92.042079 -173.084138 -8.978895 168.453625 -16.009075 -2.982628 0.958092 86.229198 -1.236454 -3.359152 21.454553 0.003089 -0.000001 -174.790633 -1.896503 -179.258752 -16.617379 3.077599 16.023012 84.132255 -10.040205 6.558820 21.454557 -0.003115 -0.000020 6.529884 0.471036 -0.484060 3.042613 0.954353 -0.955799 2.724529 0.948692 -0.961527 2.211166 -3.654360 -3.478523 -11.394960 0.354695 -4.582910 -71.427748 -79.629877 -111.352519 -5.520848 2.862715 -17.724037 -14.499040 -15.110151 1.038297 16.184710 13.760562 -0.440487 -9.373031 84.864240 172.630559 -1.567681 -11.897341 33.824084 -23.516089 20.495914 -1.507162 20.458360 -15.012040 -14.961434 
42.469879 92.093788 12.030570 88.451114 5.266642 92.027920 -173.068374 -8.971298 168.461206 -16.006299 -2.988209 0.946328 86.236070 -1.227331 -3.356088 21.454557 0.003092 0.000001 -174.783571 -1.888699 -179.266511 -16.622988 3.078967 16.019662 84.141367 -10.040218 6.556008 21.454557 -0.003099 -0.000016 6.529889 0.468469 -0.482342 3.043079 0.949164 -0.952462 2.724969 0.943539 -0.958177 2.215800 -3.654363 -3.464682 -11.371781 0.344223 -4.563659 -71.447952 -79.623388 -111.332917 -5.533776 2.863179 -17.698622 -14.523403 -15.121130 1.038304 16.181871 13.755722 -0.451808 -9.232881 84.869847 172.769348 -1.561129 -11.899619 33.818114 -23.511557 20.495909 -1.507185 20.447682 -14.975080 -14.928029 
42.514080 92.083527 11.982280 88.451114 5.358303 91.939216 -172.971727 -8.927505 168.497789 -15.985276 -3.021462 0.878717 86.268814 -1.174371 -3.335036 21.454551 0.003098 -0.000001 -174.740814 -1.843196 -179.326152 -16.650990 3.090578 16.006777 84.183700 -10.040208 6.539909 21.454558 -0.003108 -0.000019 6.535350 0.455054 -0.469404 3.054211 0.922076 -0.926874 2.736102 0.916610 -0.932423 2.200004 -3.660315 -3.383374 -11.190012 0.306412 -4.469446 -71.609534 -79.578117 -111.175727 -5.618844 2.893618 -17.664367 -14.696786 -15.203479 1.038298 16.228726 13.780941 -0.458327 -8.706773 84.890939 173.290150 -1.554997 -11.918841 33.789270 -23.486922 20.496749 -1.507176 20.374620 -14.757353 -14.746973 
42.562149 92.076523 11.929630 88.451107 5.447582 91.854037 -172.883972 -8.887498 168.522842 -15.968603 -3.051224 0.821267 86.292139 -1.128325 -3.311065 21.454548 0.003085 -0.000003 -174.700926 -1.799303 -179.392897 -16.670892 3.108323 16.003509 84.209778 -10.040218 6.523502 21.454557 -0.003105 -0.000017 6.542639 0.445184 -0.453042 3.069008 0.901965 -0.894355 2.750920 0.896683 -0.899792 2.236404 -3.728765 -3.315796 -11.099388 0.314682 -4.419477 -71.741978 -79.566527 -111.044252 -5.694238 2.926338 -17.673738 -14.830099 -15.261691 1.038296 16.321521 13.838271 -0.535374 -8.210222 84.905030 173.782047 -1.535845 -11.932229 33.760351 -23.495038 20.506398 -1.507161 20.313370 -14.575571 -14.597163 
42.612499 92.071640 11.865490 88.451107 5.525002 91.790858 -172.835191 -8.853892 168.536625 -15.979683 -3.069902 0.786561 86.313449 -1.098062 -3.284847 21.454553 0.003093 -0.000000 -174.679534 -1.757596 -179.435381 -16.691183 3.127801 16.001139 84.225679 -10.040209 6.505535 21.454560 -0.003106 -0.000018 6.549494 0.439594 -0.439449 3.082865 0.890450 -0.867260 2.764757 0.885334 -0.872603 2.271960 -3.860542 -3.261409 -11.033067 0.380200 -4.417042 -71.836501 -79.580966 -110.947995 -5.767673 2.932346 -17.639739 -14.859527 -15.253259 1.038285 16.344880 13.875591 -0.739786 -7.699080 84.901881 174.289338 -1.514351 -11.944351 33.732720 -23.533299 20.516929 -1.507162 20.266898 -14.472879 -14.516078 
42.666359 92.067802 11.791390 88.451114 5.597810 91.747998 -172.814974 -8.821692 168.547390 -16.014488 -3.077029 0.768978 86.336029 -1.079414 -3.255676 21.454553 0.003097 -0.000000 -174.668059 -1.714901 -179.441268 -16.713249 3.144847 15.989727 84.237106 -10.037497 6.484171 21.454558 -0.003119 -0.000019 6.558293 0.438316 -0.429796 3.100565 0.887746 -0.847907 2.782460 0.882750 -0.853252 2.294973 -4.004449 -3.222552 -10.964725 0.454421 -4.436282 -72.050764 -79.596484 -110.731655 -5.867677 2.909497 -17.642416 -14.808429 -15.203970 1.034793 16.317860 13.876000 -0.791172 -7.126186 84.884000 174.858730 -1.501181 -11.944250 33.725521 -23.586969 20.535261 -1.507162 20.244264 -14.492049 -14.525266 
42.722420 92.063553 11.712430 88.451114 5.676160 91.710924 -172.797502 -8.785908 168.552335 -16.056585 -3.076849 0.759000 86.359778 -1.065797 -3.225024 21.454551 0.003089 -0.000001 -174.654385 -1.668399 -179.419876 -16.739158 3.155851 15.964703 84.250342 -10.025388 6.460904 21.454557 -0.003108 -0.000019 6.571597 0.436337 -0.420458 3.127216 0.882590 -0.829247 2.809136 0.877697 -0.834543 2.301965 -4.054605 -3.204375 -10.899577 0.466713 -4.433600 -72.297798 -79.611811 -110.482422 -5.989420 2.855237 -17.677525 -14.681282 -15.131079 1.029222 16.286822 13.823482 -0.509238 -6.468461 84.871377 175.511997 -1.489657 -11.923300 33.771840 -23.655790 20.561378 -1.507168 20.301329 -14.649289 -14.630721 
